<svg xmlns="http://www.w3.org/2000/svg" width="1146" height="296" viewBox="0 0 1146 296" version="1.1"><path d="M 124.500 2.404 C 112.580 6.190, 102.055 14.704, 93.991 27.085 C 88.080 36.163, 31.635 149.537, 18.110 179.500 C 2.768 213.490, 1.725 216.692, 1.203 231.394 C 0.708 245.339, 2.200 252.509, 7.882 263.494 C 14.516 276.320, 28.454 287.747, 44 293.105 C 53.036 296.219, 69.092 296.844, 79.710 294.495 C 96.385 290.805, 111.846 281.486, 130.353 263.967 L 138.756 256.013 147.128 264.356 C 162.686 279.860, 178.242 289.625, 194.438 294.054 C 205.743 297.145, 224.135 296.542, 234.881 292.729 C 253.028 286.289, 267.114 271.734, 273.341 252.990 C 277.940 239.148, 277.807 227.002, 272.891 211.820 C 267.888 196.371, 202.164 61.227, 185.472 32.067 C 175.589 14.801, 166.589 6.861, 152.068 2.595 C 145.543 0.679, 130.266 0.573, 124.500 2.404 M 132 20.874 C 125.872 22.204, 121.120 25.088, 116.243 30.438 C 109.157 38.211, 73.728 107.760, 39.290 181.500 C 31.327 198.550, 23.976 214.871, 22.954 217.768 C 17.062 234.470, 20.891 252.157, 32.963 264 C 47.705 278.464, 68.152 281.006, 88.257 270.876 C 99.704 265.108, 117.382 250.890, 123.112 242.842 L 125.114 240.031 119.177 232.232 C 89.313 193.002, 80.698 159.108, 94.166 133.839 C 102.446 118.304, 119.053 109, 138.500 109 C 153.580 109, 165.902 114.023, 175.496 124.081 C 185.505 134.574, 189.593 146.887, 188.752 164 C 187.820 182.949, 176.397 208.106, 157.792 232.181 C 152.861 238.563, 152.030 240.187, 152.881 241.778 C 154.854 245.465, 171.073 259.921, 179.603 265.598 C 193.891 275.104, 207.885 278.650, 221.240 276.147 C 247.019 271.316, 262.513 244.750, 254.568 219 C 252.665 212.833, 251.781 210.843, 236.919 179.245 C 216.500 135.833, 209.735 121.903, 191.633 86 C 165.490 34.148, 161.909 28.521, 151.794 23.396 C 146.598 20.762, 137.722 19.632, 132 20.874 M 663.667 22.667 C 663.300 23.033, 663 73.433, 663 134.667 L 663 246 680.500 246 C 696.667 246, 698.152 245.848, 700 244 C 701.252 242.748, 702 240.667, 702 238.434 L 702 234.867 707.750 239.382 C 717.447 246.996, 726.712 249.970, 740.792 249.988 C 763.901 250.018, 782.307 242.097, 797.881 225.420 C 805.876 216.860, 812.470 204.719, 815.490 193 C 818.097 182.882, 818.607 164.102, 816.550 153.934 C 809.107 117.145, 777.565 91, 740.622 91 C 728.695 91, 715.987 95.310, 706.451 102.589 L 702 105.987 702 63.993 L 702 22 683.167 22 C 672.808 22, 664.033 22.300, 663.667 22.667 M 991.667 22.667 C 991.300 23.033, 991 73.433, 991 134.667 L 991 246 1008.500 246 C 1024.667 246, 1026.152 245.848, 1028 244 C 1029.258 242.742, 1030 240.667, 1030 238.407 L 1030 234.814 1034.874 238.895 C 1045.146 247.495, 1055.697 250.531, 1072.500 249.722 C 1108.259 248, 1137.276 223.454, 1144.662 188.678 C 1146.582 179.641, 1145.949 157.351, 1143.521 148.500 C 1141.093 139.647, 1133.826 125.336, 1128.300 118.524 C 1105.111 89.942, 1060.867 82.288, 1034.750 102.340 L 1030 105.987 1030 63.993 L 1030 22 1011.167 22 C 1000.808 22, 992.033 22.300, 991.667 22.667 M 502.500 25.383 C 493.179 29.790, 488.044 38.002, 488.044 48.500 C 488.044 62.851, 497.499 72.725, 512.253 73.784 C 528.085 74.921, 540 64.051, 539.968 48.500 C 539.938 33.620, 529.134 23.020, 514 23.020 C 509.243 23.020, 506.159 23.654, 502.500 25.383 M 379.831 92.023 C 361.484 95.119, 345.011 104.582, 333.700 118.524 C 328.059 125.478, 320.892 139.692, 318.333 149 C 315.770 158.323, 315.803 182.765, 318.391 192.500 C 325.511 219.279, 344.322 238.823, 371 247.157 C 380.876 250.242, 402.400 250.545, 410.788 247.717 C 416.392 245.828, 425.008 241.006, 428.746 237.665 C 431.371 235.320, 431.353 235.306, 432.566 240.493 C 433.746 245.537, 434.543 245.726, 455.250 245.882 L 471 246 471 170.403 L 471 94.806 453.049 95.153 C 441.492 95.376, 434.696 95.902, 433.970 96.629 C 433.350 97.250, 432.596 99.596, 432.294 101.842 L 431.747 105.926 427.623 102.581 C 415.758 92.956, 397.805 88.990, 379.831 92.023 M 620.773 92.491 C 614.052 94.195, 607.452 97.430, 600.500 102.426 L 595.500 106.020 594.959 101.552 C 594.661 99.095, 594.061 96.728, 593.627 96.292 C 593.192 95.856, 584.548 95.345, 574.418 95.155 L 556 94.809 556 170.405 L 556 246 575.500 246 L 595 246 595 193.703 L 595 141.406 598.750 137.809 C 602.570 134.145, 609.021 130.459, 614.472 128.826 C 622.858 126.314, 637.566 126.141, 644.896 128.467 C 646.981 129.129, 647 128.975, 647 111.174 C 647 95.007, 646.825 93.143, 645.250 92.502 C 641.656 91.041, 626.522 91.034, 620.773 92.491 M 897.370 92.492 C 890.525 93.981, 880.808 98.494, 874.601 103.068 L 870.500 106.090 869.914 101.901 C 869.002 95.390, 867.867 95, 849.809 95 L 834 95 834 170.500 L 834 246 853.500 246 L 873 246 873 193.104 L 873 140.207 876.703 136.956 C 885.375 129.341, 900.545 125.078, 912.255 126.964 C 923.342 128.749, 929.591 135.388, 932.058 148 C 932.734 151.457, 933.060 167.615, 932.934 191.500 C 932.825 212.400, 932.795 233.213, 932.867 237.750 L 933 246 952.250 245.998 L 971.500 245.996 971.500 193.248 C 971.500 142.030, 971.436 140.262, 969.297 132.303 C 965.535 118.302, 960.559 110.640, 950.620 103.549 C 935.683 92.890, 915.147 88.626, 897.370 92.492 M 494.667 95.667 C 494.300 96.033, 494 130.008, 494 171.167 L 494 246 513.500 246 L 533 246 533 170.500 L 533 95 514.167 95 C 503.808 95, 495.033 95.300, 494.667 95.667 M 726.628 128.110 C 721.785 129.247, 710.427 135.163, 706.017 138.844 C 701.525 142.594, 701.022 146.885, 701.744 175.302 L 702.322 198.105 707.411 202.705 C 715.305 209.841, 721.651 212.338, 733.113 212.819 C 751.894 213.606, 764.708 207.035, 773.713 192 C 781.367 179.220, 780.598 159.400, 771.924 145.882 C 762.934 131.872, 743.342 124.185, 726.628 128.110 M 1054 128.410 C 1047.288 130.444, 1042.045 132.873, 1037.257 136.167 C 1029.547 141.472, 1029.702 140.745, 1029.870 170.787 L 1030.019 197.500 1035.124 202.291 C 1037.932 204.926, 1042.540 208.301, 1045.365 209.791 C 1050.170 212.326, 1051.303 212.498, 1063 212.462 C 1074.408 212.428, 1076.092 212.178, 1082.268 209.599 C 1098.091 202.992, 1106.965 188.906, 1106.989 170.355 C 1107.015 150.916, 1097.435 136.540, 1080.315 130.325 C 1072.109 127.346, 1060.338 126.490, 1054 128.410 M 129 129.311 C 119.125 132.151, 111.488 139.801, 108.861 149.485 C 108.240 151.777, 107.984 157.578, 108.267 163 C 108.818 173.595, 111.645 182.834, 117.751 194 C 122.185 202.108, 137.007 224, 138.062 224 C 140.649 224, 153.328 205.262, 160.796 190.403 C 166.781 178.495, 169 170.291, 169 160.073 C 169 145.340, 164.326 136.753, 153.397 131.406 C 146.830 128.193, 136.092 127.271, 129 129.311 M 385.773 129.555 C 369.345 133.537, 358.735 144.786, 355.975 161.145 C 352.959 179.027, 359.281 196.699, 371.617 204.870 C 388.269 215.900, 411.705 215.028, 427.230 202.801 C 432.784 198.427, 433.193 195.866, 432.825 167.814 L 432.500 143.127 429.787 140.297 C 425.804 136.143, 416.950 131.071, 410.842 129.446 C 404.203 127.679, 393.317 127.726, 385.773 129.555" stroke="none" fill="#fffcfc" fill-rule="evenodd"/><path d="" stroke="none" fill="#fcfcfc" fill-rule="evenodd"/></svg>