<svg xmlns="http://www.w3.org/2000/svg" width="1200" height="375" viewBox="0 0 1200 375" version="1.1"><path d="" stroke="none" fill="#fc5c64" fill-rule="evenodd"/><path d="M 161.500 1.022 C 144.725 4.389, 129.721 15.548, 118.445 33.045 C 113.620 40.533, 62.914 140.685, 44.551 179 C 30.059 209.238, 10.820 251.182, 6.600 261.739 C -1.782 282.712, -2.279 305.102, 5.217 324 C 18.618 357.785, 53.458 378.678, 88.723 374.077 C 114.642 370.696, 137.053 358.481, 162.500 333.868 L 173.500 323.228 184.057 333.364 C 206.280 354.701, 225.107 366.352, 246.758 372.165 C 257.217 374.973, 276.476 375.167, 286.500 372.565 C 317.707 364.464, 340.354 340.085, 346.431 308.050 C 349.790 290.343, 347.809 275.804, 339.475 257 C 336.916 251.225, 333.774 244.025, 332.495 241 C 331.215 237.975, 328.827 232.800, 327.189 229.500 C 325.550 226.200, 322.552 219.900, 320.525 215.500 C 307.995 188.301, 293.800 158.976, 273.814 119 C 230.862 33.086, 227.334 26.900, 214.861 15.613 C 203.266 5.120, 189.741 -0.076, 174.503 0.110 C 169.551 0.170, 163.700 0.580, 161.500 1.022 M 168 25.610 C 155.808 27.857, 145.281 36.218, 137.290 50 C 128.357 65.405, 53 216.919, 53 219.475 C 53 219.628, 49.803 226.447, 45.895 234.627 C 28.263 271.539, 25.034 280.337, 24.462 293.036 C 23.727 309.340, 28.960 322.899, 40.500 334.592 C 52.320 346.569, 65.762 351.616, 83.475 350.728 C 99.162 349.941, 112.473 344.460, 129.306 331.854 C 137.726 325.548, 157 307.214, 157 305.510 C 157 304.806, 154.177 300.466, 150.726 295.865 C 128.852 266.702, 116.383 241.690, 111.435 217.052 C 109.225 206.047, 109.891 189.119, 112.864 180.725 C 119.849 161.005, 134.301 146.788, 153.500 140.752 C 163.663 137.556, 184.467 137.539, 194.500 140.718 C 215.891 147.496, 232.023 165.220, 236.622 187 C 239.544 200.840, 237.179 220.257, 230.347 238.500 C 224.258 254.761, 211.364 276.922, 196.776 296.200 L 190.193 304.900 200.205 314.962 C 222.519 337.385, 243.318 349.114, 263.442 350.622 C 290.363 352.639, 313.814 336.447, 321.611 310.457 C 323.916 302.772, 323.996 286.816, 321.770 278.500 C 320.336 273.145, 311.174 251.897, 301.288 231 C 299.336 226.875, 293.803 215.175, 288.991 205 C 272.459 170.039, 266.771 158.390, 243.825 112.500 C 211.322 47.497, 209.802 44.754, 201.901 36.870 C 196.925 31.904, 193.782 29.688, 189.380 28.041 C 183.644 25.895, 173.011 24.686, 168 25.610 M 602.500 69.898 C 587.378 73.767, 579.354 90.055, 585.700 104 C 591.405 116.536, 606.344 122.201, 618.493 116.436 C 622.845 114.371, 628.412 108.722, 630.702 104.048 C 633.230 98.888, 633.030 88.636, 630.301 83.500 C 624.908 73.350, 612.580 67.319, 602.500 69.898 M 747.461 71.250 C 747.199 71.938, 747.101 118.850, 747.242 175.500 L 747.500 278.500 763.893 278.775 C 782.397 279.086, 784 278.574, 784 272.352 L 784 269.013 788.651 272.563 C 801.370 282.272, 815.309 284.984, 834.140 281.415 C 861.252 276.277, 882.430 256.652, 890.164 229.500 C 892.034 222.933, 892.439 219.081, 892.424 208 C 892.403 192.327, 890.984 185.781, 884.931 173.441 C 877.744 158.788, 866.780 148.125, 851.500 140.930 C 829.166 130.413, 803.921 131.944, 788.250 144.764 L 784 148.241 784 109.120 L 784 70 765.969 70 C 752.464 70, 747.818 70.314, 747.461 71.250 M 1055 174.500 L 1055 279 1071.429 279 C 1089.855 279, 1091 278.611, 1091 272.345 L 1091 268.833 1093.750 270.954 C 1099.320 275.250, 1103.643 277.743, 1109.500 280.037 C 1114.642 282.051, 1117.287 282.390, 1128 282.412 C 1138.836 282.433, 1141.631 282.079, 1149 279.748 C 1159.789 276.336, 1170.895 269.806, 1178.238 262.558 C 1188.406 252.523, 1193.650 243.251, 1197.643 228.249 C 1199.955 219.560, 1200.172 217.259, 1199.730 206.028 C 1199.183 192.104, 1197.563 184.926, 1192.614 174.500 C 1181.462 151.008, 1158.689 135.676, 1132.833 134.251 C 1117.749 133.420, 1107.053 136.226, 1096.750 143.717 L 1092 147.170 1092 108.585 L 1092 70 1073.500 70 L 1055 70 1055 174.500 M 480.197 135.528 C 461.128 139.668, 445.806 149.730, 435.782 164.695 C 426.772 178.146, 422.924 191.022, 422.885 207.851 C 422.834 229.684, 429.117 246.392, 442.781 260.763 C 455.672 274.322, 471.611 281.488, 491.500 282.666 C 506.066 283.529, 517.220 280.225, 527.500 272.002 L 531.500 268.803 531.825 272.639 C 532.360 278.967, 532.460 279, 551.122 279 L 568 279 568 208.500 L 568 138 551.200 138 C 539.467 138, 534.038 138.362, 533.200 139.200 C 532.540 139.860, 532 142.107, 532 144.193 L 532 147.987 527.250 144.342 C 515.038 134.972, 497.708 131.725, 480.197 135.528 M 707.588 135.052 C 702.855 136.243, 692.918 141.198, 688.489 144.576 L 685.258 147.041 684.623 143.866 C 683.462 138.059, 683.263 138, 664.871 138 L 647.987 138 648.243 208.750 L 648.500 279.500 666.750 279.773 L 685 280.045 685 230.126 L 685 180.207 688.704 176.955 C 696.957 169.709, 710.917 166.144, 723.855 167.979 C 727.626 168.514, 731.451 169.236, 732.355 169.583 C 733.841 170.153, 733.999 168.629, 733.985 153.857 C 733.976 144.861, 733.584 136.892, 733.113 136.149 C 732.028 134.437, 713.242 133.629, 707.588 135.052 M 966.712 135.119 C 960.364 136.366, 951.734 140.250, 947.023 143.982 C 942.453 147.601, 942 147.668, 942 144.723 C 942 143.470, 941.299 141.445, 940.443 140.223 C 938.945 138.084, 938.285 138, 922.943 138 L 907 138 907 208.500 L 907 279 925.500 279 L 944 279 944 229.532 L 944 180.065 949.250 176.149 C 956.506 170.737, 959.658 169.297, 967.358 167.878 C 981.156 165.336, 992.132 169.783, 996.839 179.823 L 999.500 185.500 999.796 232.750 L 1000.091 280 1018.611 280 L 1037.131 280 1036.736 229.250 C 1036.305 173.944, 1036.065 171.403, 1030.295 160.801 C 1024.372 149.918, 1010.333 139.518, 996.990 136.129 C 988.849 134.062, 974.525 133.584, 966.712 135.119 M 590 208.500 L 590 279 608 279 L 626 279 626 208.500 L 626 138 608 138 L 590 138 590 208.500 M 165.326 162.045 C 155.363 164.014, 145.964 170.460, 140.461 179.097 C 133.377 190.213, 133.243 208.896, 140.108 228.338 C 144.699 241.338, 159.068 266.190, 170.125 280.253 L 173.862 285.005 177.281 280.753 C 184.373 271.933, 197.483 250.948, 202.428 240.500 C 203.991 237.200, 206.499 231.125, 208.002 227 C 218.183 199.063, 212.285 175.112, 192.894 165.658 C 184.189 161.414, 174.764 160.178, 165.326 162.045 M 490.926 169.524 C 478.660 172.005, 468.241 179.984, 463.188 190.764 C 460.736 195.997, 460.501 197.553, 460.511 208.500 C 460.521 219.387, 460.769 221.028, 463.183 226.199 C 468.598 237.793, 480.789 246.207, 494.590 247.873 C 508.735 249.581, 518.328 246.522, 528.250 237.140 L 532 233.594 532 208.505 L 532 183.416 527.750 179.274 C 522.606 174.260, 515.020 170.331, 507.863 168.974 C 501.826 167.829, 498.821 167.927, 490.926 169.524 M 803.413 169.824 C 797.235 171.960, 788.677 177.324, 785.981 180.751 C 784.127 183.108, 784 184.864, 784 208.157 L 784 233.045 788.003 237.387 C 793.571 243.428, 802.352 247.228, 812 247.772 C 830.527 248.816, 845.683 240.522, 852.697 225.500 C 855.255 220.021, 855.498 218.501, 855.499 208 C 855.500 197.636, 855.237 195.939, 852.840 190.825 C 849.499 183.699, 843.509 177.139, 837.214 173.713 C 826.868 168.082, 813.051 166.492, 803.413 169.824 M 1110.536 170.118 C 1104.091 172.334, 1100.332 174.605, 1095.250 179.355 L 1092 182.392 1092 208.196 L 1092 234 1095.856 237.856 C 1097.977 239.977, 1102.364 243.014, 1105.606 244.606 C 1111.050 247.279, 1112.340 247.496, 1122.500 247.451 C 1131.457 247.411, 1134.521 246.991, 1139 245.187 C 1155.421 238.572, 1163.550 225.804, 1163.312 207 C 1163.168 195.584, 1160.570 188.810, 1153.343 181.004 C 1142.636 169.439, 1125.318 165.035, 1110.536 170.118" stroke="none" fill="#fc5c5c" fill-rule="evenodd"/></svg>